<svg width="16" height="18" viewBox="0 0 16 18" fill="none" xmlns="http://www.w3.org/2000/svg">
<g id="Gwiazdka do strony 2" clip-path="url(#clip0_593_3491)">
<g id="Group">
<path id="Vector" d="M7.61082 8.41877C7.56395 7.48469 7.36709 6.55985 7.039 5.63502C6.5703 4.30326 6.33595 3.38767 6.33595 2.88826C6.33595 2.18539 6.50468 1.64898 6.84215 1.27905C7.17961 0.909117 7.59207 0.733398 8.0889 0.733398C8.51073 0.733398 8.8857 0.918365 9.20441 1.27905C9.52313 1.64898 9.68249 2.16689 9.68249 2.84202C9.68249 3.45241 9.50438 4.30326 9.1388 5.39456C8.77321 6.48587 8.54823 7.49394 8.47324 8.40952C9.23254 7.93786 9.90747 7.35521 10.5168 6.68008C11.4542 5.60728 12.1479 4.94139 12.5978 4.69169C13.0478 4.43274 13.5071 4.30326 13.9758 4.30326C14.4258 4.30326 14.8101 4.45123 15.1195 4.75643C15.4288 5.06162 15.5788 5.42231 15.5788 5.84773C15.5788 6.34714 15.3538 6.80031 14.8945 7.18874C14.4445 7.58642 13.3103 7.97485 11.4917 8.37253C10.4324 8.60374 9.55126 8.87194 8.85757 9.16789C9.57 9.53782 10.4418 9.81527 11.4729 10.0002C13.1322 10.2962 14.2196 10.6754 14.7351 11.1193C15.2507 11.5632 15.5038 12.0534 15.5038 12.5805C15.5038 12.9875 15.3538 13.3389 15.0445 13.6348C14.7351 13.9308 14.3789 14.0788 13.9664 14.0788C13.554 14.0788 13.0947 13.94 12.5978 13.6533C12.0916 13.3666 11.4167 12.7285 10.5637 11.7389C10.0012 11.073 9.29815 10.4534 8.46386 9.87076C8.49198 10.6476 8.65134 11.48 8.94194 12.3956C9.43877 13.9955 9.68249 15.0868 9.68249 15.6695C9.68249 16.2151 9.51376 16.6683 9.18567 17.0382C8.85757 17.4082 8.50136 17.5931 8.13577 17.5931C7.62957 17.5931 7.17024 17.3989 6.75778 17.0012C6.46718 16.7145 6.32657 16.2614 6.32657 15.6417C6.32657 14.9943 6.48593 14.2082 6.80465 13.2926C7.12337 12.3771 7.32022 11.7482 7.40459 11.406C7.48896 11.0638 7.56395 10.5459 7.62957 9.87076C6.8234 10.3979 6.11097 10.9898 5.51103 11.6372C4.508 12.747 3.7487 13.4499 3.2425 13.7551C2.88628 13.9678 2.51132 14.0788 2.12698 14.0788C1.65828 14.0788 1.26457 13.9215 0.927099 13.6071C0.599006 13.2926 0.430273 12.9505 0.430273 12.5713C0.430273 12.2291 0.570884 11.8777 0.852106 11.5077C1.13333 11.1378 1.55516 10.8233 2.11761 10.5829C2.49257 10.4164 3.33624 10.2037 4.64861 9.9355C5.50165 9.75978 6.33594 9.50083 7.14212 9.15864C6.40156 8.7887 5.51103 8.51125 4.47988 8.30779C2.79254 7.95635 1.74264 7.63266 1.34893 7.35521C0.730243 6.91129 0.420898 6.36564 0.420898 5.7275C0.420898 5.35757 0.570884 5.02463 0.880228 4.71943C1.18957 4.41424 1.54579 4.26627 1.95825 4.26627C2.4082 4.26627 2.89566 4.40499 3.40186 4.69169C3.90806 4.97839 4.5455 5.55178 5.29542 6.41188C6.0641 7.28122 6.83277 7.94711 7.61082 8.41877Z" fill="#A47CF2"/>
</g>
</g>
<defs>
<clipPath id="clip0_593_3491">
<rect width="16" height="18" fill="white"/>
</clipPath>
</defs>
</svg>
